<svg id="matrix" xmlns="http://www.w3.org/2000/svg" width="33.179" height="33.179" viewBox="0 0 33.179 33.179">
  <path id="circle" d="M16.59,0A16.59,16.59,0,1,0,33.179,16.59,16.589,16.589,0,0,0,16.59,0Z" fill="#1e1e1e" opacity="0.3"/>
  <path id="m" d="M27.091,25.094a3,3,0,0,1-3.05,1.195,3.171,3.171,0,0,1-1.343-.77,6.144,6.144,0,0,1-1.558-3.446c-.332-1.451-.628-2.929-.92-4.377q-.464-2.305-.928-4.611-.22-1.1-.442-2.2c-.048-.306-.078-.488-.084-.5a.221.221,0,0,0-.324-.079c-.083.051-2.528,2.248-2.751,2.446l-.089.079a1.925,1.925,0,0,1-1.374.581,1.527,1.527,0,0,1-1.158-.664l-.062-.079c-.152-.195-1.44-1.866-1.492-1.908a.173.173,0,0,0-.252.075c-.049.08-2.025,6.158-2.242,6.81C8.6,18.92,7.6,19.832,6.687,19.6s-1.259-1.466-.856-2.7a3.488,3.488,0,0,1,.206-.5L9.659,7.8a1.763,1.763,0,0,1,1.366-1.087.888.888,0,0,1,.718.193c.7.694,1.381,1.387,2.1,2.055.39.362.685.573,1.248.33A8.548,8.548,0,0,0,17,7.724c.607-.524,1.216-1.062,1.837-1.6a.091.091,0,0,1,.021-.015,2.165,2.165,0,0,1,1.12-.459,1.612,1.612,0,0,1,1.9,1l.29.808,1.2,3.336q.808,2.249,1.618,4.5l1.472,4.1.507,1.408c.092.259.18.519.256.781.021.072.04.143.059.215A4.331,4.331,0,0,1,27.091,25.094Z" fill="#1e1e1e"/>
</svg>
